<svg width="121.138" height="117.902" viewBox="0 0 32.051 31.195" xmlns="http://www.w3.org/2000/svg"><defs><filter id="a" x="0" y="0"><feGaussianBlur in="SourceGraphic" stdDeviation=".15" result="blur"/></filter></defs><g fill="#e7ecf6" stroke="#e7ecf6" stroke-width=".265" aria-label="tr" filter="url(#a)"><path d="M11.23 11.63h5.885l.677-3.81H11.95l1.143-6.265h-3.81c-1.44 4.318-3.344 6.266-7.154 7.282L1.62 11.63h2.92l-2.072 11.6c-.254 1.44-.338 1.905-.338 2.413 0 2.667 1.99 4.19 5.503 4.19 3.217 0 6.689-1.439 9.102-3.767l-1.778-2.836c-1.482 1.058-3.599 2.032-4.488 2.032-.846 0-1.397-.508-1.397-1.313 0-.211.043-.592.085-.93z"/><path d="M9.621 29.454h6.69l.888-4.741a128.96 128.96 0 0 1 1.016-4.869c.72-2.963 1.1-4.064 1.947-5.419.678-1.016 1.651-1.735 2.456-1.735.423 0 .677.127 1.227.55 1.016.762 1.694 1.016 2.71 1.016 2.201 0 3.81-1.482 3.81-3.514 0-1.947-1.736-3.302-4.149-3.302-2.37 0-4.657 1.228-6.562 3.599l.593-3.218h-2.201c-3.09.974-4.996 1.313-8.128 1.482l-.635 3.43.508.041c1.862.17 2.497.55 2.497 1.482 0 .339-.084 1.058-.169 1.609z"/></g></svg>